<svg xmlns="http://www.w3.org/2000/svg" width="1500" height="1500" viewBox="0 0 1500 1500"><path fill="#20414C" d="M-2-2h1500v1500H-2z"/><path fill="#72BAE7" d="M201.79 1266.38l17.122-20.51c11.854 9.784 24.27 15.993 39.324 15.993 11.854 0 19.004-4.705 19.004-12.418v-.377c0-7.338-4.516-11.102-26.53-16.746-26.53-6.773-43.652-14.11-43.652-40.266v-.377c0-23.896 19.192-39.7 46.1-39.7 19.19 0 35.56 6.02 48.92 16.746l-15.054 21.824c-11.665-8.09-23.143-12.982-34.244-12.982s-16.934 5.08-16.934 11.48v.374c0 8.656 5.645 11.48 28.41 17.31 26.72 6.964 41.772 16.56 41.772 39.515v.377c0 26.152-19.944 40.828-48.355 40.828-19.946 0-40.08-6.962-55.884-21.073zM350.055 1153.86h28.977v57.577l53.436-57.576h34.997l-53.624 55.884 56.07 75.826h-34.808l-40.83-56.07-15.24 15.805v40.266h-28.977v-131.71zM537.645 1233.64l-50.614-79.778h33.87l31.42 52.87 31.987-52.87h32.928l-50.613 79.213v52.496h-28.977v-51.93z"/><path fill="#5592B5" d="M654.11 1153.86h53.81c31.423 0 50.427 18.628 50.427 45.534v.377c0 30.48-23.707 46.288-53.248 46.288h-22.015v39.512h-28.977v-131.71zm51.93 66.42c14.488 0 22.956-8.655 22.956-19.944v-.377c0-12.983-9.032-19.944-23.52-19.944h-22.39v40.266h22.955zM811.785 1152.92h26.718l56.446 132.65h-30.294l-12.04-29.54H796.92l-12.04 29.54h-29.542l56.447-132.65zm30.48 77.52l-17.497-42.712-17.498 42.713h34.996zM900.97 1220.092v-.375c0-37.443 29.163-68.113 69.052-68.113 23.708 0 38.008 6.396 51.743 18.062l-18.25 22.014c-10.16-8.467-19.193-13.357-34.434-13.357-21.072 0-37.818 18.627-37.818 41.018v.378c0 24.084 16.558 41.77 39.89 41.77 10.536 0 19.943-2.635 27.282-7.902v-18.816H969.27v-25.023h57.2v57.2c-13.55 11.476-32.176 20.884-56.26 20.884-41.02-.002-69.24-28.79-69.24-67.738zM1054.313 1153.86h99.347v25.778h-70.56v26.72h62.093v25.776H1083.1v27.658h71.5v25.777h-100.287v-131.71zM1180.376 1153.86h60.21c16.746 0 29.73 4.704 38.385 13.36 7.34 7.338 11.29 17.686 11.29 30.105v.375c0 21.262-11.478 34.62-28.224 40.83l32.175 47.04h-33.867l-28.224-42.147h-22.768v42.146h-28.977v-131.71zm58.33 63.974c14.11 0 22.2-7.525 22.2-18.627v-.377c0-12.418-8.654-18.814-22.766-18.814h-28.788v37.818h29.353zM800.087 167.46H695.913c23.14-55.872 52.085-53.613 52.085-53.613s28.953-2.26 52.09 53.613z"/><g fill="#C1C1C0"><circle cx="694.458" cy="934.734" r="43.551"/><circle cx="680.549" cy="897.541" r="16.602"/><circle cx="895.489" cy="894.246" r="70.009"/><circle cx="981.489" cy="858.346" r="40.236"/></g><path fill="#D1D2D1" d="M720.848 754.45l-25.903 250.724 99.114 6.42-16.943-257.15"/><path fill="#5592B5" d="M638.945 620.058h-22.32L520.18 725.11l-24.08 26.337c25.398-175.93 103.136-284.88 131.143-328.46l-3.52 122.086c-.003 1.832.04 3.694.125 5.582.955 21.747 7.274 46.452 15.097 69.403zM999.9 751.453l-24.07-26.336-96.445-105.06h-22.31c7.825-22.953 14.144-47.656 15.1-69.404.083-1.884.128-3.744.128-5.58l-3.52-122.097c28.002 43.578 105.74 152.53 131.116 328.477z"/><path fill="#72BAE7" d="M843.972 341.817c-5.562-61.94-21.634-115.445-39.088-157.586H691.15c-17.467 42.14-33.536 95.648-39.102 157.586 0 0-7.04 206.955-6.955 208.84.957 21.746 7.273 46.448 15.1 69.402 14.57 42.755 34.35 79.405 34.35 79.405H801.48s19.78-36.652 34.348-79.406c7.826-22.953 14.143-47.653 15.1-69.406.088-1.883-6.956-208.833-6.956-208.833zm-96.59 192.286c-19.05 0-34.496-15.445-34.496-34.497-.002-19.052 15.445-34.497 34.497-34.498 19.052 0 34.497 15.447 34.497 34.495 0 19.052-15.45 34.5-34.5 34.5zm0-114.806c-25.15-.002-45.538-20.392-45.538-45.54 0-25.157 20.39-45.538 45.54-45.538 25.148 0 45.534 20.38 45.536 45.537-.002 25.15-20.388 45.537-45.54 45.54z"/><path fill="#5592B5" d="M787.583 717.02L777.1 736.97l-58.18.004-10.48-19.957"/><path fill="#E2E1E0" d="M1161.168 1021.45c0-15.837-10.828-29.144-25.486-32.923 4.865-12.14 7.547-25.39 7.547-39.268 0-58.337-47.288-105.628-105.624-105.628-36.557 0-68.77 18.574-87.732 46.797-6.526-4.73-14.546-7.528-23.223-7.528-10.294 0-19.67 3.928-26.714 10.363-14.633-13.402-34.123-21.586-55.53-21.586-45.422 0-82.242 36.82-82.242 82.243 0 2.246.115 4.465.292 6.664-3.384-3.506-8.085-5.596-14.287-5.596-7.885 0-13.35 3.372-16.755 8.75-6.398-4.18-13.818-6.923-21.803-7.778-2.22-12.54-13.18-22.07-26.36-22.07-3.108 0-6.1.53-8.87 1.51-13.488-16.75-34.158-27.47-57.34-27.47-3.16 0-6.27.2-9.318.58.07-.85.1-1.71.1-2.57 0-17.77-14.4-32.18-32.18-32.18-12.73 0-23.74 7.4-28.96 18.13-17.09-16.56-40.39-26.73-66.05-26.73-52.47 0-95.01 42.54-95.01 95.02 0 9.48 1.39 18.64 3.978 27.28-.26-.01-.51-.01-.77-.01-18.77 0-34 15.22-34 34s15.23 34 34 34h738.67l-.006-.01c18.627-.176 33.672-15.323 33.672-33.99z"/></svg>